<svg xmlns="http://www.w3.org/2000/svg" xmlns:xlink="http://www.w3.org/1999/xlink" width="215" height="215" viewBox="0 0 215 215">
  <defs>
    <clipPath id="clip-Custom_Size_1">
      <rect width="215" height="215"/>
    </clipPath>
  </defs>
  <g id="Custom_Size_1" data-name="Custom Size – 1" clip-path="url(#clip-Custom_Size_1)">
    <rect id="Rectangle_2" data-name="Rectangle 2" width="67" height="52" transform="translate(133.126 12.596) rotate(47)"/>
    <rect id="Rectangle_1" data-name="Rectangle 1" width="128" height="143" transform="translate(44 62)"/>
    <g id="_211656_text_document_icon" data-name="211656_text_document_icon" transform="translate(-85.5 -64.4)">
      <path id="Path_1" data-name="Path 1" d="M272.686,123.077a12.905,12.905,0,0,0-1.96-3.415L223.807,68.319a12.965,12.965,0,0,0-3.751-2.743,11.4,11.4,0,0,0-5.319-1.176H125.21c-6.943,0-12.71,5.935-12.71,13.382V265.459c0,7.5,5.767,13.941,12.71,13.941H261.32c6.943,0,12.43-6.439,12.43-13.941V128.788A13.838,13.838,0,0,0,272.686,123.077ZM139.375,128.34c0-.84,1.008-1.176,1.9-1.176h39.641c.9,0,1.568.336,1.568,1.176v6.047a1.711,1.711,0,0,1-1.568,1.736H141.279a2.09,2.09,0,0,1-1.9-1.736Zm0,71.667c0-.84,1.008-1.176,1.9-1.176H209.7c.9,0,1.344.336,1.344,1.176v6.047c0,.784-.392,1.736-1.344,1.736H141.279a2.09,2.09,0,0,1-1.9-1.736Zm89.583,41.88c0,.784-.392,1.736-1.344,1.736H141.279a2.09,2.09,0,0,1-1.9-1.736V235.84c0-.84,1.008-1.176,1.9-1.176h86.336c.9,0,1.344.336,1.344,1.176v6.047Zm17.917-71.667c0,.784-.392,1.736-1.344,1.736H141.279a2.09,2.09,0,0,1-1.9-1.736v-6.047c0-.84,1.008-1.176,1.9-1.176H245.531c.9,0,1.344.336,1.344,1.176Zm-26.259-42.5A6.529,6.529,0,0,1,214.4,121.4V84.444l39.865,43.28Z" fill="#ffaa3b"/>
    </g>
  </g>
</svg>
