<svg xmlns="http://www.w3.org/2000/svg" xmlns:xlink="http://www.w3.org/1999/xlink" width="215" height="215" viewBox="0 0 215 215">
  <defs>
    <clipPath id="clip-Custom_Size_1">
      <rect width="215" height="215"/>
    </clipPath>
  </defs>
  <g id="Custom_Size_1" data-name="Custom Size – 1" clip-path="url(#clip-Custom_Size_1)">
    <g id="_3688481_earphone_earphones_headphone_headphones_audio_icon" data-name="3688481_earphone_earphones_headphone_headphones_audio_icon" transform="translate(-6 4)">
      <path id="Path_2" data-name="Path 2" d="M29.889,21V38.917H47.806V21Zm149.306,0V38.917h17.917V21ZM35.861,38.917H47.806v95.556H35.861A29.861,29.861,0,0,1,6,104.611V68.778A29.861,29.861,0,0,1,35.861,38.917Zm143.333,0h11.944A29.861,29.861,0,0,1,221,68.778v35.833a29.861,29.861,0,0,1-29.861,29.861H179.194Z" transform="translate(0 64.639)" fill="#ffaa3b" stroke="#fff" stroke-linecap="round" stroke-width="0" fill-rule="evenodd"/>
      <path id="Path_3" data-name="Path 3" d="M183.907,85.639c-7.388-36.926-36.036-64.5-70.407-64.5s-63.019,27.574-70.407,64.5H30.068C38.4,41.289,72.495,8,113.5,8s75.1,33.283,83.432,77.639Zm-136.1,17.917H65.722v95.556H47.806ZM6,127.444H23.917v47.778H6Zm155.278-23.889h17.917v95.556H161.278Zm41.806,23.889H221v47.778H203.083Z" transform="translate(0)" stroke="#fff" stroke-linecap="round" stroke-width="0" fill-rule="evenodd"/>
    </g>
  </g>
</svg>
